<svg xmlns="http://www.w3.org/2000/svg" width="100" height="100" viewBox="0 0 100 100">
    <g fill="none" fill-rule="evenodd" stroke="#9B9B9B" stroke-linecap="round" stroke-linejoin="round" stroke-width="4">
        <path d="M30.5 21.5l32.25 32.25c2.25-4 1.5-8.25-.75-17.5s6.15-12.75 6.15-12.75l18.932 41.466a24.023 24.023 0 0 1 1.204 7.534c0 13.275-10.761 24.036-24.036 24.036a23.95 23.95 0 0 1-16.236-6.312L21.895 64.105M44.5 69.75L27.45 52.7M52.25 61.225L32.388 41.362M35.975 16.75l6.344-6M23.75 28.75L17 35.25M23.75 16.75L17 9.5M30.25 13.75V4M21.375 22.5H12"/>
    </g>
</svg>
